<svg data-v-fde0c5aa="" xmlns="http://www.w3.org/2000/svg" viewBox="0 0 300 300" class="iconLeft"><!----><defs data-v-fde0c5aa=""><!----></defs><rect data-v-fde0c5aa="" fill="#FDF7EC" x="0" y="0" width="300px" height="300px" class="logo-background-square"></rect><defs data-v-fde0c5aa=""><!----></defs><g data-v-fde0c5aa="" id="537c4f11-3572-41c4-bb86-3ef0f6431078" fill="#342103" transform="matrix(1.4289143085479736,0,0,1.4289143085479736,79.55492038667403,133.988904019091)"><path d="M2.97 9.52L6.44 9.52L6.44 7.88L2.67 7.88L1.05 8.82L1.05 13.94L2.67 14.88L6.44 14.88L6.44 13.24L2.97 13.24ZM12.59 9.52L12.59 7.88L11.17 7.88L10.18 8.46L9.84 7.88L8.26 7.88L8.26 14.88L10.18 14.88L10.18 9.52ZM14.53 17.68L16.42 17.68L20.36 7.88L18.44 7.88L16.81 12.00L16.79 12.00L15.06 7.88L13.15 7.88L15.82 14.39ZM26.36 14.95L27.99 14.01L27.99 8.75L26.36 7.81L24.53 7.81L23.53 8.39L23.20 7.81L21.62 7.81L21.62 17.68L23.53 17.68L23.53 14.38L24.53 14.95ZM23.53 9.45L26.07 9.45L26.07 13.31L23.53 13.31ZM29.53 9.52L30.81 9.52L30.81 13.94L32.44 14.88L34.27 14.88L34.27 13.24L32.73 13.24L32.73 9.52L34.27 9.52L34.27 7.88L32.73 7.88L32.73 5.60L30.81 6.71L30.81 7.88L29.53 7.88ZM42.32 14.01L42.32 8.75L40.70 7.81L37.72 7.81L36.09 8.75L36.09 14.01L37.72 14.95L40.70 14.95ZM38.01 9.45L40.40 9.45L40.40 13.31L38.01 13.31ZM44.14 16.81L45.77 17.75L49.17 17.75L50.79 16.81L50.79 14.32L49.17 13.38L46.34 13.38L46.34 12.47L48.75 12.47L50.37 11.54L50.37 10.02L49.52 9.52L50.79 8.78L50.79 7.88L46.05 7.88L44.42 8.82L44.42 11.69L45.42 12.26L44.42 12.84L44.42 14.10L45.77 14.88L44.14 15.83ZM48.87 14.88L48.87 16.14L46.06 16.14L46.06 14.88ZM46.34 9.45L48.45 9.45L48.45 10.91L46.34 10.91ZM54.53 7.88L52.61 7.88L52.61 14.88L54.53 14.88ZM52.54 6.58L54.60 6.58L54.60 4.66L52.54 4.66ZM57.71 7.88L55.79 7.88L58.38 14.88L60.30 14.88L62.89 7.88L60.97 7.88L59.35 12.47L59.32 12.47ZM69.96 13.24L66.07 13.24L66.07 12.10L69.96 12.10L69.96 8.75L68.33 7.81L65.77 7.81L64.15 8.75L64.15 13.94L65.77 14.88L69.96 14.88ZM66.07 9.45L68.04 9.45L68.04 10.65L66.07 10.65ZM73.70 12.12L75.67 12.12L75.67 13.34L73.70 13.34ZM73.40 14.95L74.68 14.95L75.67 14.38L76.66 14.95L77.59 14.95L77.59 8.82L75.96 7.88L72.48 7.88L72.48 9.52L75.67 9.52L75.67 10.65L73.40 10.65L71.78 11.59L71.78 14.01ZM84.03 10.46L85.26 14.88L87.25 14.88L89.04 7.88L87.26 7.88L86.17 12.35L86.14 12.35L84.90 7.88L83.13 7.88L81.89 12.35L81.86 12.35L80.77 7.88L78.99 7.88L80.78 14.88L82.77 14.88L84.00 10.46ZM92.08 12.12L94.05 12.12L94.05 13.34L92.08 13.34ZM91.78 14.95L93.06 14.95L94.05 14.38L95.05 14.95L95.97 14.95L95.97 8.82L94.35 7.88L90.86 7.88L90.86 9.52L94.05 9.52L94.05 10.65L91.78 10.65L90.16 11.59L90.16 14.01ZM98.62 17.68L100.51 17.68L104.44 7.88L102.52 7.88L100.90 12.00L100.87 12.00L99.15 7.88L97.23 7.88L99.90 14.39ZM105.98 14.88L108.64 14.88L108.64 12.22L105.98 12.22ZM120.86 8.75L119.24 7.81L117.89 7.81L116.58 8.57L115.28 7.81L113.93 7.81L112.94 8.39L112.60 7.81L111.02 7.81L111.02 14.88L112.94 14.88L112.94 9.45L114.98 9.45L114.98 14.88L116.90 14.88L116.90 9.45L118.94 9.45L118.94 14.88L120.86 14.88ZM124.59 14.88L126.28 14.88L126.28 13.24L124.88 13.24L124.88 4.66L122.96 4.66L122.96 13.94Z"></path></g><defs data-v-fde0c5aa=""><linearGradient data-v-fde0c5aa="" gradientTransform="rotate(25)" id="ee47bf71-fd99-4ff0-86d0-12de82a82473" x1="0%" y1="0%" x2="100%" y2="0%"><stop data-v-fde0c5aa="" offset="0%" stop-color="#E56500" stop-opacity="1"></stop><stop data-v-fde0c5aa="" offset="100%" stop-color="#EBC51D" stop-opacity="1"></stop></linearGradient></defs><g data-v-fde0c5aa="" id="0be4c8c3-35cb-41a1-8d3a-996461f3eeca" stroke="none" fill="url(#ee47bf71-fd99-4ff0-86d0-12de82a82473)" transform="matrix(0.8767623901367188,0,0,0.8767623901367188,40,135.9718016475442)"><path d="M9.382 8.675h13.943v13.943L32 31.293V0H.707zM22.618 23.325H8.675V9.382L0 .707V32h31.293z"></path></g><!----></svg>